<svg xmlns="http://www.w3.org/2000/svg" version="1" width="514" height="514" viewBox="-1.3 -0.45 513.85 514.15"><path fill="#0d131a" d="M141 79h2q2 2-1 14l-4 19q-6 19-10 19h-15l-6-2q-1-1 3-8l9-15q13-21 22-27"/><path fill="#e85377" d="M142 90l-6 21-5 15-3 4h-15l-5-1q-1-3 13-23 14-22 20-26h1v10"/><path fill="#0d131a" d="M140 85h2q2 1-3 17l-5 16-4 8-1 2-8-1h-9q-1-2 10-20 11-19 18-22"/><path fill="#008c46" d="M141 87q0 6-6 22l-6 17h-15q-1-1 10-19 11-19 17-22v2"/><path fill="#0d131a" d="M423 252h1v1q2 7-5 47l-7 41-2 1-15-11-7-6v-5l8-52 2-7 4-3 11-4 10-2"/><path fill="#e85377" d="M423 258q0 12-6 44l-6 37-15-10q-6-4-6-8v-2l7-39 2-12q1-6 4-8l9-4 11-2v4"/><path fill="#0d131a" d="M406 263l8-3 8-2-10 75-12-8-3-4-1-5 7-46 1-4 2-3"/><path fill="#009f50" d="M422 261l-10 70-10-7-3-3-1-3 7-47 1-4 1-2 6-2 9-2"/><path fill="#0d131a" d="M483 264v-1l10 7 9 7q4 4 3 9l-1 25q-2 26-4 32l-3 5-8 5-10 3-6 2h-1l3-45q4-43 8-49"/><path fill="#c94768" d="M477 311q3-39 7-46l8 7 9 7q2 2 2 7v7l-5 49-3 4q-2 3-5 4l-17 7 4-46"/><path fill="#0d131a" d="M483 271l9 6 6 6q1 2-4 52 0 4-2 6l-5 4-8 3-5 2h-1l10-79"/><path fill="#008c46" d="M474 348l10-74 7 6 5 5-1 25-3 25-1 5-5 4-12 4"/><path fill="#0d131a" d="M392 167l5-16v1l12 18q9 15 7 18-3 8-7 9-2 0-5-6l-2-3-10-20v-1"/><path fill="#c94768" d="M397 154l12 19q6 11 6 14-3 8-6 8l-4-4-1-4-11-20 4-13"/><path fill="#0d131a" d="M448 112q3 2 15 24l12 25v2l-1 1q-1 2-4 1l-7-1h-5l-31-55h11q8 1 10 3"/><path fill="#c94768" d="M461 136l12 25v1h-1l-9 1-4-1-30-52 11 1q6 0 7 2 2 1 14 23"/><path fill="#0d131a" d="M428 113h9l8 2q3 2 20 36l2 5v2l-3 1-4-1-6-1-26-44"/><path fill="#008c46" d="M444 116l10 17 10 19 2 5h-6l-5-1-24-42q11 0 13 2"/><path fill="#0d131a" d="M325 80l-1 1-1 2-9-3-11-4-15-4q-3-1-2-2l14-2 14 1q2 0 6 4 5 5 5 7"/><path fill="#c94768" d="M314 70l5 4q4 4 4 6h-2l-7-1-11-4-15-5h26"/><path fill="#0d131a" d="M147 70l7 2q4 2 6 5l1 5-1 9-15 27q-11 21-18 31l-9 12q-4 1-1-15l7-32q7-24 13-35 1-3 5-6 3-3 5-3"/><path fill="#009f50" d="M158 90q-4 12-21 40-17 29-19 28-3-1 5-32 9-32 16-46l4-6 4-2 6 1q4 2 6 5 2 4-1 12"/><path fill="#008c46" d="M157 76l2 2q2 4-1 12-4 10-18 35-14 24-20 31 7-21 17-42 11-24 20-38"/><path fill="#0d131a" d="M154 88h1v1q0 9-4 32-4 24-7 26h-1q-3 0-7-6-5-7-4-10 3-10 11-25l11-18"/><path fill="#009f50" d="M142 111q9-18 12-21 0 10-4 32-5 23-7 24l-5-6q-4-5-5-9l9-20"/><path fill="#0d131a" d="M155 87h2l1 2q-2 24-7 45-5 18-7 19l-6-5-8-12v-2l1-3 3-1 2 3 5 8 1 1 3-11 4-24 3-17q0-3 3-3"/><path fill="#e85377" d="M157 90q-3 24-8 45l-5 16-4-4-9-11q-1-3 1-4 1-1 3 1l6 9 2 2 3-12 5-25 2-17 2-2q2 0 2 2"/><path fill="#0d131a" d="M163 73q2 3 0 6l-3 3h-8l-3-2-2-3v-3l1-3q1-3 4-4 4-1 7 1 3 1 4 5"/><path fill="#0d131a" d="M153 80q-3-2-4-5v-4q1-2 4-2h5q3 1 4 4v5q-1 2-3 2l-3 1-3-1"/><path fill="#0d131a" d="M244 17q4-1 7 3 4 6 3 18 0 12-3 18l-3 4-3 1q-18-1-42 5-23 6-39 14l-5 1q-3 0-5-2-3-2-4-5v-7q2-6 10-14t20-16q29-18 64-20"/><path fill="#009f50" d="M253 38q0 11-4 17-2 4-4 4-18-1-43 5-22 6-38 14-2 2-5 1l-4-1-3-5v-5q1-6 9-14t20-15q29-17 63-21 3 0 6 3 3 5 3 17"/><path fill="#008c46" d="M244 18q3 0 6 3l-15 1q-18 2-31 6 20-8 40-10M249 55q2 1 0 2l-4 2q-18-1-43 5-22 6-38 14-3 2-7 1 18-10 41-17 18-6 33-8h11l7 1"/><path fill="#0d131a" d="M200 54q-2 2-1 6 1 3 4 5l-14 4h-1q-2-4-8-5-5-1-8 2-3 1-3 4l1 6-6 3-5 2-4-2 3-1 5-3v-9q1-4 5-7 5-2 12-1 6 1 9 5l4-2v-8q2-4 6-7 6-3 15-1t12 8l6-1 6 1 1 4q0 3-2 3l-13 1q0-2-3-4l-6-4q-10-5-15 1"/><path fill="#ffec60" d="M195 62q-2-5-1-8 1-4 5-6 6-3 15-1t12 7h12l1 2q0 3-2 3l-12 1-4-5-7-4q-4-2-8-1-5 0-7 3t-1 7l3 5-12 3q-3-4-9-5t-9 2q-3 2-3 6l1 5-5 2-4 1h-3l7-3v-7q0-6 5-8 5-3 11-2t9 5l6-2"/><path fill="#ddcc54" d="M164 76v-1l4-2 1 3-5 2-4 1h-3l7-3M189 68l-3-2q6-3 13-4l2 3-12 3M239 54l2 4-4 1-12 1-3-4 17-2"/><path fill="#009f50" d="M326 14l1 4-1 5-1 6v1l-59-14 1-1 3-5q4-5 8-7t25 3q21 5 23 8"/><path fill="#008c46" d="M324 22v6l-56-13 4-5q3-4 6-5 4-2 25 2 20 5 22 8v2l-1 5"/><path fill="#0d131a" d="M328 11q2 2 2 7v11l-1 3-1 2-4-1-2-2V19l-1-3q-1-2-18-6l-21-4q-3 1-8 9l-2 3-3 1-4-1q-2-1 0-3l2-3 6-8q3-4 5-4l22 3q20 3 28 8"/><path fill="#c94768" d="M325 32l-2-2v-6l1-5q0-3-2-4-2-3-19-7-18-4-22-3-2 0-4 4l-4 5-2 3-2 1-3-1v-1l2-3q7-10 10-11t19 2q20 3 30 9l1 8v11h-3"/><path fill="#009f50" d="M244 62l23 2q24 2 31 7l1 1q0 2-3 4l-6 4-3 3q-3 2-24-2-22-3-25-7-2-1-2-3l4-6 4-3"/><path fill="#009f50" d="M268 65q22 3 29 7h1q0 2-9 7l-3 2q-2 2-23-1t-24-7l-1-2q0-2 3-5l4-2 23 1"/><path fill="#0d131a" d="M245 59q2 1 2 3v2l-3 3-1 2-1 3q3 2 20 5l23 3 5-4q3-2 5-6l3-1 4 1 1 1v2l-7 8-9 6q-5 1-28-4-22-4-25-6l-1-1-1-1q0-3 3-7l6-6q2-3 4-3"/><path fill="#e85377" d="M243 66l-2 3-1 3 2 1q2 2 20 6 18 3 23 2 3 0 6-4l6-6h4v1l-6 7-8 6q-5 1-27-3l-23-6-1-2q-1-2 1-5l5-7q2-2 3-1l1 1-1 2-2 2"/><path fill="#0d131a" d="M249 16q10 0 17 7t7 17q0 10-7 17t-16 7q-10 0-17-7-6-7-6-17t6-17q7-7 16-7"/><path fill="#0d131a" d="M272 40q0 9-7 16-6 6-15 6t-16-6q-6-7-6-16t6-16q7-7 15-7 9 0 16 7t7 16"/><path fill="#0d131a" d="M334 54q-2 10-9 16-8 7-19 6l-10-3q-34-8-51-9-8 0-12-8-4-6-4-15 0-11 6-19 7-8 19-8h26q19 2 39 9 10 3 14 12 3 9 1 19"/><path fill="#009f50" d="M333 53q-3 10-9 16-8 7-18 5l-9-2-25-6-26-4q-8 0-12-7-4-6-3-14 0-11 5-18 7-8 18-8h3l23 1q19 2 39 8 9 3 13 12 3 8 1 17"/><path fill="#008c46" d="M272 66l-26-4q-5 0-8-3-3-2-5-6l8 1 18 2 24 4 12 3 11 5 10 5q-5 2-10 1l-9-2-25-6M329 30q3 4 4 10-2 0-4-3l-5-2q-9-9-16-10-8-3-16 5l-27-5-28-3q7-7 17-7h3l23 1q19 2 39 8 6 2 10 6"/><path fill="#0d131a" d="M290 31v1h-1l-27-5-18-3-2-3-3-7q-2-4 0-6t19 1q18 3 21 6 11 12 11 16"/><path fill="#008c46" d="M244 21l-3-5-2-5 1-2q2-1 18 1 17 3 20 6 10 10 11 14l-26-4-18-3-1-2"/><path fill="#0d131a" d="M287 19l7 11v3h-5q-3 0-3-2l-5-8-6-7-17-3-15-1 2 6 3 6q1 2-3 2-4-1-5-3l-5-13q-1-3 2-3 6-2 23 0l18 3 9 9"/><path fill="#e85377" d="M287 31l-5-8-6-8-17-3q-15-2-18-1-1 1 2 6l4 7-2 1q-2 0-3-2l-3-7-2-7q5-2 21 0 15 1 20 3l8 9 7 10-2 1-4-1"/><path fill="#0d131a" d="M329 29l5 7 3 10q0 6-2 11l-5 10-8 7q-8 4-16 1-9-3-14-12-4-9-1-19 3-12 13-17l9-3 9 1 7 4"/><path fill="#0d131a" d="M335 46q1 6-1 11l-5 9q-3 4-8 6-7 4-14 2-9-3-14-12-4-9-1-18 3-11 12-16 4-2 9-2 4-1 8 1 8 2 11 9 3 5 3 10"/><path fill="#0d131a" d="M326 27q18 6 32 13 24 12 42 31 7 8 4 16-2 8-11 15-8 6-17 8h-11q-4 0-7-3-17-17-31-25-9-6-17-9l-4-1q-9-3-11-12-3-8 0-16 3-10 11-15 9-5 20-2"/><path fill="#009f50" d="M358 43q25 12 41 29 6 7 4 15-2 7-11 13-7 6-16 8-6 2-10 1l-7-3q-16-18-31-26-8-5-18-8l-4-1q-7-3-10-11-2-8 0-16 3-8 10-13 8-5 19-1 17 5 33 13"/><path fill="#008c46" d="M325 30q17 5 33 13 25 12 41 29 4 4 4 9-16-18-44-34-27-16-42-19l8 2M344 85l14 11 16 13h-9l-6-3q-16-18-31-26-8-5-18-8l-4-1q-7-2-9-9l11 3 13 7 23 13"/><path fill="#0d131a" d="M345 68l6 3q4 4 6 10l1 9 1 3 5 5 6 3 10 7h1-1q-7 3-13 2-5 0-8-3l-4-4-4-4v-1-10l-3-7q-2-3-5-4-4 0-5 4l2 7-1 1-9-7-7-4-1-1-1-8q-3-8-10-9-3 0-3 5t3 8h-1l-4-1q-6-2-9-7l5 1-1-6q1-4 4-6 3-3 7-2 7 0 12 9l4 12 5 4q0-3 2-5 1-3 4-4h6"/><path fill="#ffec60" d="M351 73l5 8 1 9 1 4 6 4 6 4 9 6q-7 2-12 1-5 0-8-3l-3-4-4-4v-5l-1-7q0-4-2-6-2-3-5-4-4-1-6 1-2 4 0 10l-8-6-7-4 1-1q0-5-3-9-3-7-10-8-2 0-3 2l-1 4q0 4 2 7l-3-1q-4-1-7-5l4 2-1-5q0-5 3-8 3-2 7-2 7 1 11 10 4 6 4 11l7 4 1-5 4-3h6l6 3"/><path fill="#ddcc54" d="M337 81l1 6-8-6-7-4 1-1-1-3 14 8M303 68l-1-5 5 2q0 4 2 7l-3-1q-4-1-7-5l4 2M352 98v-7l9 5 9 6 5 3 4 3q-7 2-12 1-5 0-8-3l-3-4-4-4"/><path fill="#0d131a" d="M354 91q2-11 10-19 5-4 11-6l11-2 9 3q3 1 6 5 6 7 4 18-1 11-10 19-5 4-11 6l-11 2q-5 0-8-2l-7-5q-6-8-4-19"/><path fill="#0d131a" d="M404 90q-2 10-10 18l-10 6-11 2q-9-1-14-7-6-7-4-18 2-10 10-18l10-6q6-2 11-1l8 2 6 5q6 7 4 17"/><path fill="#0d131a" d="M366 75q9-8 21-8 13-1 26 11 9 9 25 33 16 23 24 40 5 12-1 23-5 10-15 15-13 7-24 6-13-1-19-11l-2-3-16-28q-13-22-24-36-8-10-6-22t11-20"/><path fill="#009f50" d="M387 68q13 0 25 11 9 9 25 34 15 24 23 41 5 11 0 21-5 8-15 13-11 6-23 5t-18-11v-1q-25-44-42-65-7-9-5-21 2-11 10-19 9-8 20-8"/><path fill="#008c46" d="M404 182v-1l-24-40q25 28 43 52-6 0-11-3t-8-8M460 154q5 9 1 18-3 7-10 13-4-19-10-36 8-8-12-37-17-25-38-44 11 2 21 11 9 9 25 34 15 24 23 41"/><path fill="#0d131a" d="M418 148l11-5q13-2 22 3 10 6 13 17 2 11-5 22-8 10-19 13-13 2-23-4-10-5-12-16v-11l4-10 9-9"/><path fill="#0d131a" d="M406 177v-10q1-5 4-9l9-9q4-3 10-4 12-3 22 2 9 6 11 16 2 11-4 21-7 10-19 12-12 3-21-3-9-5-12-16"/><path fill="#0d131a" d="M410 183l-2-9q0-7 4-13t10-10q9-5 18-5 12 1 20 10 9 10 17 33 9 27 9 52 0 7-4 14-4 5-9 8-9 5-22 6-12 0-20-5-3-2-6-8l-2-6q0-18-5-39l-8-28"/><path fill="#009f50" d="M423 152q8-5 17-4 11 0 19 9 7 8 15 35 9 28 10 51 0 12-11 19-10 5-22 5-12 1-19-4-7-4-7-12 1-17-5-40l-9-29-1-2q-3-8 2-16 3-7 11-12"/><path fill="#008c46" d="M459 157q7 8 15 35 9 28 10 51 0 12-11 19l-10 4-11 1q1-5-1-13l-1-15q5-7 1-42t-11-49q11 0 19 9"/><path fill="#0d131a" d="M414 172q2-1 4 1 4 2 6 7l1 11q0 6-3 14l1 1 1 5 4-2 4 1q4 3 5 13v13l-5 11-5 12v1l-1-1q-2-3-2-8v-3q4-5 5-14 2-10-2-16h-4l-1 3h-1l-4-18 2-10q0-5-2-8l-2-2q-3-1-3 2l-1 2-2-7-1-5v-1l1 1 1 1v1l2-4 2-1"/><path fill="#ffec60" d="M415 181q-3-1-4 2l-1-3-1-3 1 1h1q1-4 3-5l3 1q6 4 7 13 1 10-3 18v1l2 6h1q4-3 7-1t4 8l2 11-1 5-5 12-5 11-1-6v-3l5-9 2-11q0-7-4-12-1-2-3-1-2 0-3 3l-4-16q2-5 2-11l-1-8q-2-3-4-3"/><path fill="#0d131a" d="M454 232q14 0 24 8 9 8 9 19t-9 19q-10 8-24 8-13 0-23-8-9-8-9-19t9-19q10-8 23-8"/><path fill="#0d131a" d="M477 241q9 8 9 18 0 11-9 18-10 8-23 8t-22-8q-9-7-9-18 0-10 9-18 9-7 22-7t23 7"/><path fill="#0d131a" d="M461 236q12 2 21 9 9 8 8 20l-1 14-1 18q-5 51-8 61-3 8-21 10-18 3-33-1-9-3-16-11l-4-6-1-3 7-42 6-44q2-13 16-20 13-7 27-5"/><path fill="#009f50" d="M480 246q8 8 7 18l-3 31-3 38q-2 19-4 24-2 7-20 10-16 2-31-2-8-2-12-5-7-6-6-13l7-44 6-43q2-12 14-18t25-4q12 2 20 8"/><path fill="#008c46" d="M460 238q12 2 20 9 9 8 8 19l-3 30-4 38q-2 18-4 23-2 7-20 10-16 2-31-2l-7-2q9-7 18-66l6-40 3-19h14"/><path fill="#0d131a" d="M466 244q15-6 17-5v1l-1 29-2 35q-1 5-8 13l-12 10-3 3v-2l5-43 3-40v-1h1"/><path fill="#009f50" d="M482 240l-1 30-2 34q-1 5-10 14l-9 8 4-43 3-38 9-4 6-1"/><path fill="#0d131a" d="M481 234q3-1 5 1l1 2q1 3-1 33l-2 31v7q-1 5-3 7l-8 9q-8 9-10 9h-4l-2-3q-2-3-1-5l2-3 7-6q7-6 9-10l5-62q-1-1-12 4h-2l-2-3q-1-4 3-6l15-5"/><path fill="#e85377" d="M482 235q3 0 4 4l-2 31-2 31v6l-3 7-7 8q-8 8-10 8-1 1-3-2-2-2 0-4l8-6 10-11 4-64-1-1q-1-1-7 1l-6 3q-2 1-2-2l1-3 8-3 8-3"/><path fill="#0d131a" d="M457 331q6 3 10 9 4 5 5 12 2 6 1 12-1 7-4 12-4 6-9 10-11 7-25 5-13-3-21-14-9-12-8-25t11-20l12-6h14q7 1 14 5"/><path fill="#0d131a" d="M466 341q4 5 5 11 2 6 1 12t-5 12q-3 5-8 8-10 8-23 5-13-2-21-13-9-12-8-24t11-19q5-4 12-5 6-2 13-1t13 5q6 3 10 9M406 72l12-2q5 1 19 21 14 19 13 25l-2 10-5 11v1l-1-1q-3-8-44-61v-1l8-3"/><path fill="#009f50" d="M436 92q13 19 13 23-1 9-6 19l-13-20-30-38q12-5 18-4 5 0 18 20"/><path fill="#0d131a" d="M406 69l9-2q4-1 6 1 5 4 16 18 14 18 16 27l1 4q0 4-3 11l-4 10-2 1h-3l-2-2v-2l3-10 2-9q0-4-13-21-12-17-16-20l-7 2-7 3h-3l-2-2-1-2v-2q0-2 3-3l7-2"/><path fill="#e85377" d="M413 74l-9 2-4 2-2-1-1-1v-2l2-1 8-3 8-2q3-1 5 1 4 3 15 19 15 18 17 27l-2 11q-2 8-5 11 0 2-2 1l-1-2-1-1 4-10 2-10q0-4-14-22-13-18-16-20l-4 1"/><path fill="#0d131a" d="M360 110v-1l1 1 18 24q18 25 21 34v2h-11l-11-4q-3-2-14-19-11-18-10-21l4-10 2-6"/><path fill="#009f50" d="M361 112l18 26 19 30 1 1h-2l-9-1q-7-1-9-3-3-2-13-19-11-16-11-19v-1l6-14"/><path fill="#0d131a" d="M364 112l-3 7q-3 7-2 10l10 16q10 16 12 17 2 2 7 2h11q4 1 5 5 0 4-3 4h-12q-9-1-11-3-7-6-17-23-9-14-10-18-2-5 2-15l5-9 2-1q4 0 5 3l-1 5"/><path fill="#e85377" d="M360 105l3 2v3l-4 8q-3 8-1 12l7 12 9 15 6 7q5 3 19 2l1 1 1 2-1 3h-11q-8-1-10-3-6-6-17-23l-10-19q-1-3 1-7l4-9 2-3 1-3"/><path fill="#0d131a" d="M76 347l4-9 9-14q14-19 32-19l16 2q9 3 16 9 4 4 3 15t-6 20q-4 8-10 13-8 7-20 5-23-3-34-9t-10-13"/><path fill="#008c46" d="M153 332q0 10-5 18-3 7-9 11-8 6-20 4-42-6-40-18l2-7 8-13q14-18 31-18 9 0 15 2 8 3 14 9 4 4 4 12"/><path fill="#0d131a" d="M77 327q-3-5-2-10 2-8 9-14 9-7 23-7 6 1 13 5 6 4 8 8 3 4 0 14-3 9-9 13t-22 1l-10-3-4-1q-3-1-6-6"/><path fill="#009f50" d="M79 317q1-7 8-12 8-5 22-4 5 0 11 3l7 6v3l-2 10q-3 6-7 8-6 4-17 3l-16-4-2-1-3-4q-2-3-1-8"/><path fill="#008c46" d="M80 326l-1-5q13-1 22-5 10-4 12-15l8 4q4 2 6 5v3l-2 10q-3 6-7 8-6 4-17 3l-16-4-2-1q-2 0-3-3"/><path fill="#0d131a" d="M71 375q-5 1-11-2l-6-5q-2-2-3-7l1-7q3-15 25-24 3-2 7-1l6 4q4 3 6 8t1 9q-2 8-9 15-8 9-17 10"/><path fill="#009f50" d="M78 332q5-2 11 2l5 8v8q-2 6-10 13-9 7-13 7-9 0-13-5l-3-6v-5q2-8 10-15 5-4 13-7"/><path fill="#008c46" d="M69 336l9-4q5-2 11 2l5 8v8q-2 6-10 13-9 7-13 7l-4-1q4-8 5-16 1-9-3-17"/><path fill="#0d131a" d="M68 354q4-1 7 1 2 0 5 3l11 5q6 2 5 3l-3 3-10 3q-9 2-14 1-4-1-6-4l-2-6 2-6q2-3 5-3"/><path fill="#eeeeef" d="M70 371q-3 0-5-3-2-2-2-5l1-5q2-3 5-3l6 1 5 4 8 3q5 3 3 4l-10 3-11 1"/><path fill="#c8c9ca" d="M81 370l-11 1q-3 0-5-3-2-2-2-5 10 4 25 1 5 2 3 3l-10 3"/><path fill="#0d131a" d="M120 354l6-2q3 0 6 3 3 2 3 5 1 4-1 7t-6 4q-5 2-13 1l-11-1-4-2 5-4 10-7 5-4"/><path fill="#eeeeef" d="M116 370l-11-1q-1-1 3-4l7-5 5-4 6-2q3 0 5 2l2 4-1 6q-2 3-5 4h-11"/><path fill="#0d131a" d="M64 341q0-5 3-10 3-8 8-13 2-3 7-3l6 1q3 1 5 4 3 3 3 5l-1 4-3 3-13 9-7 6q-6 4-7 3l-2-3 1-6"/><path fill="#eeeeef" d="M76 320q6-5 11-2l5 3 2 4q0 4-3 6-7 3-20 14-3 3-4 2l-1-7 4-10 6-10"/><path fill="#c8c9ca" d="M71 345l-1 1q8-15 21-26l3 5q0 4-3 6-7 3-20 14"/><path fill="#0d131a" d="M367 201h1q3 6 13 43l10 36v12q0 5-3 12l-12 26h-2l-40-95 33-34"/><path fill="#c94768" d="M379 245l10 35 1 6-1 8-3 7-6 13-6 13-39-91 31-32q3 5 13 41"/><path fill="#0d131a" d="M337 236l26-23 6 18 15 50q2 9-1 18l-10 21-36-84"/><path fill="#008c46" d="M361 216l7 21 14 46v6l-1 8-9 19-33-80 22-20"/><path fill="#0d131a" d="M378 331q7 9 14 13 5 3 10 2l5-2 2-2 4-4q4-4 9-6 14-7 27 0 9 4 14 12 4 6 6 13 2 8 1 16t-5 14q-17 23-46 32-28 9-53-2-22-9-36-26-12-14-14-26-2-10 1-17 2-7 11-12 12-8 29-9 16-1 21 4"/><path fill="#009f50" d="M392 345q5 3 10 3l6-2 2-3 4-5 9-5q13-7 26 0 8 4 13 12 4 5 6 12 2 8 1 16-2 8-5 13-17 23-44 31-26 7-54-4-20-9-35-26-9-11-14-23-3-9 1-17 3-6 11-10 12-7 28-8 16-2 20 3 7 9 15 13"/><path fill="#008c46" d="M377 332q7 9 15 13 5 3 10 3l4-1q4 6 9 4 12-3 17-21 9-1 17 3t13 12q4 5 6 12 2 8 1 16-2 8-5 13-17 22-42 30t-52-2q-12-8-21-29l-15-51q12-5 26-6 13 0 17 4"/><path fill="#0d131a" d="M348 328h1v1q2 6 9 16t9 10q4-4 10-5 5-2 11 0 7 3 11 11 5 8 5 18v1l8 1h9l-1-3-1-15q0-5 2-9t7-7q5-3 11-2 5 1 9 4l1 1 2-6 2-9v-1l1 1q4 2 6 5h1v1l-2 9q-1 6-3 8l2 14q0 13-6 20-4 4-10 6-6 1-13-1-6-3-8-8l-9 1h-10q-8 8-17 10-8 3-15-2-9-6-11-16t1-18l-9-14-10-19v-1h1l6-2"/><path fill="#ddcc54" d="M357 346q7 10 10 12 4-5 9-6 6-2 11 0 8 3 12 10 3 8 3 18l1 1 10 2 9-1v-4l-2-16q1-9 9-14 4-3 10-1l8 3 2 2h1l2-7q2-4 2-9l5 5-1 9-3 8 2 14q0 12-6 19-4 4-9 5-6 2-12-1-6-2-8-7v-1l-1 1-9 1-10-1h-1q-8 9-16 11t-14-2q-5-3-8-10-3-6-3-13 0-6 2-11v-1l-9-13-10-18 5-1 9 16"/><path fill="#0d131a" d="M389 359q5 4 5 9v8q-2 6-7 10-4 5-10 6-5 1-8-3-5-6-4-16 2-10 8-15 4-3 8-3t8 4"/><path fill="#008c46" d="M370 388q-4-6-3-15 2-9 7-13 7-7 14 0t5 16q-2 5-6 9-5 5-10 5-4 1-7-2"/><path fill="#009f50" d="M434 352q4-1 8 2l6 6q4 5 4 11 1 7-3 13t-10 6q-3 0-7-3-3-2-4-6-2-4-2-11 0-9 3-14 2-3 5-4"/><path fill="#009f50" d="M441 355q4 2 6 6l4 10q0 7-3 12-4 6-9 6l-6-3q-3-2-4-5-2-4-1-11 0-9 2-13l4-4 7 2"/><path fill="#0d131a" d="M218 162q1-2 5-1l8 2q9 4 38 27l1 2-25 24v-1l-12-18q-12-17-14-23-2-3-2-7l1-5"/><path fill="#e85377" d="M229 164l19 13 19 14-21 22q-22-33-25-41l-1-5 1-3q2-2 8 0"/><path fill="#0d131a" d="M232 178q-2-4 0-4l3 1 10 6 15 12 1 2v1l-4 5-5 5-1-1-9-12-10-15"/><path fill="#009f50" d="M259 195l-4 7-3 2q-2-1-8-11l-10-16 23 17 2 1"/><path fill="#0d131a" d="M324 215q10 10 18 26 5 7 19 43l15 39q3 15-5 28-8 11-21 16t-25 1q-14-4-21-17l-24-44q-9-15-19-22-18-13-23-37-5-22 3-39 6-12 18-17 11-5 26-1 22 6 39 24"/><path fill="#0d131a" d="M360 285l14 39q3 14-5 26-7 10-20 15-13 4-24 1-13-3-20-15-16-33-23-44-10-15-20-23-18-13-23-36-5-22 4-38 5-12 16-17 11-4 26 0 21 6 38 23 9 10 18 25 5 8 19 44"/><path fill="#0d131a" d="M337 224l5 10q4 8 2 10-1 1-4-1-4-3-13-2l-18 4-4 1v-1q5-27-6-41-9-12-27-13l-5-1 2-1 3-2q21-6 41 9 12 9 24 28"/><path fill="#009f50" d="M327 240q-6 0-18 4h-3l2-14q0-17-8-27-5-6-12-10-5-3-11-4 15-3 34 11 16 11 25 25l5 10q3 7 2 8l-2-1q-5-3-14-2"/><path fill="#008c46" d="M336 225l5 10q3 7 2 8l-2-1q-5-3-14-2-6 0-18 4h-3l2-14-1-12q3-2 1-8-1-4-6-10-2-4 3-2l10 5q7 5 12 11l9 11"/><path fill="#0d131a" d="M275 295v-6q0-5 3-11 3-8 10-13 10-7 24-6h1v1l-1 3-1 8q-1 13 3 21l-3 4-7 9-4 3-12-5-13-8"/><path fill="#009f50" d="M279 279q3-8 10-13 9-7 22-6l-2 16q0 9 4 16l-3 3-10 12-11-5-13-8v-5q0-5 3-10"/><path fill="#008c46" d="M276 289q0-5 3-10 3-8 10-13 9-7 22-6l-2 16q0 9 4 16l-6 7q-16-8-31-10"/><path fill="#0d131a" d="M290 309l8 5 4 6 9 21 10 20v1l-1 1q-3 1-10-2-8-4-11-9l-27-50 1-3 3 1 14 9"/><path fill="#009f50" d="M310 341l10 20-9-2-9-8-12-23-15-27 14 9 9 5 12 26"/><path fill="#0d131a" d="M365 320q6 16 4 21-4 12-14 18-6 3-13 4h-9q-4-1-5-3l-13-24-11-23 7-8 8-7h1q13 12 26 10 7 0 12-3v-1l1 1 6 15"/><path fill="#009f50" d="M367 341q-3 11-13 16-6 4-13 4h-8q-3 0-4-2l-12-23-10-22 6-8 7-7q12 11 24 11 8 0 14-4 10 23 10 32l-1 3"/><path fill="#008c46" d="M368 338l-1 3q-3 10-12 16-6 3-13 4-5-16-14-36-8-21-11-23l3-3q12 11 24 11 8 0 14-4 10 23 10 32"/><path fill="#0d131a" d="M360 277l2-2 6 16 7 18 1 12-1 8-2-1-7-19-4-8-2-24"/><path fill="#009f50" d="M365 291l8 23 1 7-1 4-6-17-3-7-2-19 3 9"/><path fill="#0d131a" d="M331 206l17-7v1l-9 11q-10 12-15 14-3 2-6 0l-3-3-1-5 3-4 14-7"/><path fill="#e85377" d="M345 201q-15 18-21 21-3 2-5 1-2 0-2-2l-1-2 2-4 12-6 15-8"/><path fill="#0d131a" d="M365 253q9 9 8 21 0 14-9 24-8 9-20 9t-20-10q-9-10-9-22t9-21q8-10 20-10t21 9"/><path fill="#009f50" d="M363 295q-8 8-19 8-12 0-19-8-8-8-8-20 0-11 8-19 7-9 19-9 11 0 19 9 7 8 7 19 0 12-7 20"/><path fill="#008c46" d="M347 248q10 1 17 9 6 8 6 18 0 12-7 20-8 8-19 8-7 0-12-3-6-3-10-8 15-5 22-15 7-12 3-29"/><path fill="#0d131a" d="M343 297q0-4 3-8 3-3 7-3t7 3q3 3 3 7 0 3-3 6t-7 3l-7-2q-3-3-3-6"/><path fill="#008c46" d="M361 296l-2 6q-2 2-6 2-3 0-5-2l-2-6q0-3 2-5t5-2q4 0 6 2t2 5"/><path fill="#0d131a" d="M350 290h8q3 0 5 3l6 13 9 24q1 3-1 7l-6 4q-3 2-8 2-4 0-6-2l-9-24-5-17 2-6q2-3 5-4"/><path fill="#009f50" d="M361 294l5 13 8 23q2 4 0 7l-3 3-7 1-4-3q-2-2-8-18-6-17-6-21-1-3 1-5l3-2h7q3 0 4 2"/><path fill="#008c46" d="M347 294l3-2h7q3 0 4 2l5 13 8 23q2 4 0 7l-3 3-10-21q-6-11-15-17v-3q-1-3 1-5"/><path fill="#0d131a" d="M371 328l8 3q3 3 3 7t-3 7q-4 3-8 3-5 0-9-3t-4-7q0-4 3-7 4-3 10-3"/><path fill="#008c46" d="M371 346q-5 0-7-2-3-3-3-6t3-6q2-2 7-2 4 0 7 2 3 3 3 6t-3 6q-3 2-7 2"/><path fill="#0d131a" d="M372 329q6-1 11 2l42 19 3 4-2 5q-2 7-9 15-8 8-14 7-7-2-20-12l-18-15q-5-6-5-13 0-4 3-7 3-4 9-5"/><path fill="#009f50" d="M401 342l22 11q3 1 1 6-2 6-9 12t-11 5q-7-2-19-10l-18-15q-4-4-4-8-1-4 1-8 3-3 8-4t10 2l19 9"/><path fill="#008c46" d="M395 346q-15-8-29-12 3-3 8-3l8 2 19 9 22 11q3 1 1 6l-1 3-28-16"/><path fill="#0d131a" d="M387 390q0-9 4-14v-2q6-9 19-18 17-13 29-12 12 0 26 10 14 11 17 23 8 40-2 43-17 5-49-2l-24-7q-10-3-13-6-7-5-7-15"/><path fill="#009f50" d="M392 377q6-7 21-18 17-13 26-13 12-1 25 9 14 11 16 22 3 17 3 28t-4 13q-5 3-42-4-36-6-42-11-6-4-6-13 0-8 3-13"/><path fill="#008c46" d="M390 394v-11q19-10 38-16 21-6 42-7 8 9 10 17 3 17 3 28t-4 13q-5 3-42-4-36-6-42-11-4-3-5-9"/><path fill="#0d131a" d="M487 385q6 0 13 7 6 7 10 16 3 7 1 12l-5 10-9 7q-11 6-21-3-4-3-8-12-5-10-4-14 1-8 10-16 9-7 13-7"/><path fill="#009f50" d="M498 394q5 6 9 15 2 7 1 12l-6 8q-6 6-14 6-7 1-11-2-3-3-7-12-5-9-4-13 0-4 10-12 9-9 11-9 5 0 11 7"/><path fill="#008c46" d="M487 387q5 0 11 7 5 6 9 15 2 7 1 12l-6 8q-6 6-14 6-7 1-11-2l-2-3 4-16q0-10-5-17l8-7 5-3"/><path fill="#0d131a" d="M370 375q4-8 14-11 9-2 13 1l4 2 7 6q12 9 15 18 3 10-4 19-4 7-12 12-7 4-18-1t-17-14q-6-9-7-16 0-8 5-16"/><path fill="#009f50" d="M396 368q9 4 13 8 7 6 10 15l1 6q0 7-6 14l-10 8q-6 4-15-1t-15-14q-6-8-5-14 0-5 4-13 4-7 12-10 7-2 11 1"/><path fill="#008c46" d="M369 392q-1-5 2-11 7 12 19 17t29 1h1q-1 6-6 12-4 5-10 8-6 4-15-1t-15-14q-5-7-5-12"/><path fill="#0d131a" d="M452 331l16-4q9 0 15 9 4 4 8 15l3 9q3 7 1 13l-5 10q-4 6-15 5-9 0-15-3-5-3-14-13t-13-20v-4q0-3 2-5 4-6 17-12"/><path fill="#009f50" d="M482 339l7 16 2 4q3 6 2 12-1 5-5 11-3 5-14 3l-14-4q-4-1-11-11-7-9-12-19-1-3 1-6 4-6 15-10 10-4 14-4 9 0 15 8"/><path fill="#008c46" d="M467 331q9 0 15 9 3 4 7 15l2 4q3 6 2 12-1 5-5 11-3 4-11 4l-12-3q9-12 10-23 2-13-8-29"/><path fill="#0d131a" d="M473 366l8 2q4 2 6 6 2 6 0 15-3 9-8 16l-7 9q-2 0-4-10l-3-16-2-15 3-4 7-3"/><path fill="#eeeeef" d="M485 387l-7 16q-3 6-5 6t-3-8l-3-16q-2-9-1-12 1-4 6-4 4-1 8 1t5 5q2 5 0 12"/><path fill="#c8c9ca" d="M485 375q2 5 0 12l-7 16-4 6q6-20 3-40l5 3q3 1 3 3"/><path fill="#0d131a" d="M446 406q11-1 9 3l-9 8q-8 6-21 6-13 1-22-5-2-1-2-5-1-3 1-6 2-5 7-8 5-4 7-3l6 3q13 8 24 7"/><path fill="#eeeeef" d="M451 408q1 2-6 6-7 6-20 7-12 0-20-5-2-1-2-4l1-4 6-8 5-3 6 3 10 6q7 2 15 1l5 1"/><path fill="#c8c9ca" d="M406 405q7 7 18 9 10 2 22 0h-1q-7 6-20 7-12 0-20-5-2-1-2-4l1-4q0-2 2-3"/><path fill="#0d131a" d="M488 411q4-1 8 2 6 5 3 13-4 7-12 8-10 2-20-3-8-4-15-11-3-4-2-5l4-1h13q12 0 21-3"/><path fill="#eeeeef" d="M495 414q4 4 1 11-3 6-10 7-6 1-16-3-10-5-15-10-2-2-1-3h15l19-3q4-2 7 1"/><path fill="#c8c9ca" d="M497 418q1 4-2 9-4 4-9 5t-13-2l-13-7q11 3 19 2 11-1 18-7"/><path fill="#0d131a" d="M128 435l1 3-53 56h-3v-3q0-4 3-10l4-9 16-21q14-21 18-31l1-1 13 16"/><path fill="#009f50" d="M97 453q14-20 18-30l11 12-26 29q-22 25-23 24l1-6 4-8 15-21"/><path fill="#008c46" d="M115 423l6 7q-21 32-43 53l2-5 2-4 15-21q14-20 18-30"/><path fill="#0d131a" d="M240 352l1-3 1 3q2 6 31 53 31 48 46 68 3 3 2 17 0 2-2 3l-3-1-38-40-43-44q-7-5-2-30l4-18 3-8"/><path fill="#009f50" d="M241 355q8 17 32 56 28 45 45 64v13q-1 1-3-2l-36-39-40-41q-4-3-4-13l2-20 4-18"/><path fill="#008c46" d="M235 394v-1l2-20 4-18q6 14 37 62 30 48 40 58v9l-53-58-30-32"/><path fill="#0d131a" d="M230 412q7-2 8-1v1l-2 8-6 17-8 23-9 25-10 19q-2 3-14 6-11 4-19 3-7-1-14-5l-8-7-9-26-9-28 1-1 52-19q34-12 47-15"/><path fill="#009f50" d="M227 438l-17 46-7 13-5 6q-6 3-14 4-9 3-14 2-4 0-12-4l-8-5-8-25-10-28 64-22q35-12 40-12l-9 25"/><path fill="#008c46" d="M211 420q21-7 25-7l-9 25-17 46-7 13-5 6-3 1q-1-18-8-35-7-20-20-34l44-15"/><path fill="#0d131a" d="M213 432q3 2 2 8-2 22-8 40-5 15-10 19-2 2-12 4-10 3-15 2-5 0-11-3l-10-5q-2-2-7-23l-5-21 11-6 23-9q33-13 42-6"/><path fill="#ed8599" d="M214 440q-4 21-9 37t-10 20q-2 2-11 4l-14 2-9-3-10-4q-2-1-7-18l-5-24q17-9 34-15 31-12 39-6 3 2 2 7"/><path fill="#ce7486" d="M212 433q3 2 2 7l-5 25-7 19q-2-5-9-10-6-5-16-9-21-9-37-5l-1-6q17-9 34-15 31-12 39-6"/><path fill="#0d131a" d="M194 495q3-2 5-8l1-17q0-5 2-3l5 5-2 9q-2 9-6 14h-1q-2 3-5 4l-10 4-11 1-12-3-8-4h-2q-3-1-8-21l-5-19v-1l5-2 10-5h1v1l-2 26 1 16q1 2 7 5 7 3 12 3l13-1 10-4"/><path fill="#e85377" d="M199 492l1-5 1-11 1-6 1 1 3 2q-3 13-7 19l-2 4-3 3-8 2-15 2q-5 0-13-3l-8-5-6-17-6-21 14-6-2 13-1 14v7l2 8q0 2 6 5 7 4 14 4l12-2 11-3 5-5"/><path fill="#fff" d="M213 434l1 4v2l-3 14q-1-11-8-23 7 0 10 3"/><path fill="#0d131a" d="M138 457h4l6 8q3 6 2 9l-3 16-2-1-1-2-5-15-3-13 2-2"/><path fill="#fff" d="M138 458v-1l3 2q3 2 5 6 3 4 3 7v2l-1 6-2 6q-2-3-4-13l-4-14v-1"/><path fill="#dbdcdc" d="M138 457l3 2q3 2 5 6 3 4 3 7v2l-2 10q-1-13-7-19l-2-6v-1-1"/><path fill="#0d131a" d="M185 456l7 1v4l-3 13q-1 11-3 14-1 3-3 3l-2-4-3-10-2-14v-3l4-2 5-2"/><path fill="#fff" d="M191 458v2l-4 16-3 11-4-10q-3-9-3-14v-2l3-2 5-1h6"/><path fill="#dbdcdc" d="M191 458v2l-4 16-2 8q0-10-7-14l-1-7v-2l3-2 5-1h6"/><path fill="#0d131a" d="M201 460l-2-4 7-4 6-4-2 10q-3 9-5 7l-4-5"/><path fill="#e85377" d="M203 460l-2-4 9-6-3 7-2 5-2-2"/><path fill="#c94768" d="M204 454l6-4-3 7-2 5-1-1v-7"/><path fill="#0d131a" d="M3 122l9-1q6-1 7 1l47 53q45 53 42 62-3 13 1 28 5 18 21 40l4 5q2 4 5 5l4 1q3 0 3 4 1 9-2 21-3 14-8 16l-4 1q-3-1-5-4L61 237 1 127q-2-4 2-5"/><path fill="#009f50" d="M7 125l6-1 4 1q27 30 56 66 32 41 32 45-2 6-2 13 0 14 11 36l15 23 5 7q3 4 7 4 2 0 2 5l-1 12q-2 18-6 19-3 1-6-4L64 235 5 129v-3l2-1"/><path fill="#008c46" d="M9 127v-2l1-1h5l2 1q27 30 56 66 32 41 32 45-2 6-2 13 0 14 11 36l15 23 5 7q3 4 7 4 2 0 2 5l-1 12q-2 18-6 19-3 1-6-4l-8-13q1-4-6-19-6-14-14-27L45 192 9 127"/><path fill="#0d131a" d="M237 196q18-6 34-2 15 3 23 15 6 9 8 22 1 16-4 34-5 16-12 19-3 1-9 8l-12 15q-13 22-13 35l2 29v27q0 4-5 10l-10 10q-9 10-13 20-5 10-10 14-3 3-14 6l-11 7-14 10-11 9q-4 4-6 4t-11-10q-12-13-26-33-15-23-15-31 0-7 4-17l4-11 3-14 6-19 8-24 3-9q2-7 5-11l9-9 12-8q4-12 12-28 12-24 27-42 15-19 36-26"/><path fill="#009f50" d="M146 313q10-12 19-17v-1l12-27q12-23 27-41 14-18 35-26 19-8 32-5 14 4 22 15 5 8 7 21 1 16-4 33-5 15-10 17-4 2-10 9-7 7-13 17-14 23-14 37l1 26 1 15v11q-1 4-5 9l-9 11-7 9-7 10q-4 9-9 13-3 3-12 7l-12 6-13 10-11 7-7 4q-2 0-8-6-10-11-23-31-12-18-17-29v-4l1-5 3-10 3-11 9-31q8-28 10-30l9-13"/><path fill="#008c46" d="M293 211q5 8 7 21 1 16-4 33-5 15-10 17-4 2-10 9-7 7-13 17-14 23-14 37l1 26 1 15v11q-1 4-5 9l-9 11-7 9-7 10q-4 9-9 13-3 3-12 7l-12 6-13 10-9 6-8 5 1-7-1-7-2-1-5-2q-7-4-11-16-5-15-2-33l3-11q2-3 3 0 3 18 13 20 3 1 7-1l6-3 16-42q10-32 10-42-1-20 2-33 5-21 16-42 11-19 25-34 14-14 28-19 14-6 24 1"/><path fill="#0d131a" d="M135 338q0-8 2-15 1-7 3-10 8-13 18-19 11-7 27-8l6-11 8-15-9-18 10-12 6 13 5 8 19-5 20-4q5-10 16-17 14-8 30-9l5 11q-12 0-23 7-12 8-21 20l-1 1-24 6-17 4-5 8-7 15q14 5 20 18 5 13-1 31-3 9-11 19-12 15-27 18-13 3-24 1-13-3-19-14-3-5-4-11l-2-12"/><path fill="#ffec60" d="M143 314q9-16 27-22 10-3 17-3l15-29-3-7-7-11 7-9 6 14q4 8 5 7l17-5 24-6 12-12q15-11 33-13l1 3 1 4q-25 2-43 27l-41 11-7 10-7 16 3 2q5 2 8 6 11 10 10 25 0 14-11 29-12 17-26 20-12 3-23 1-13-3-18-14-4-8-5-20 0-14 5-24"/><path fill="#ddcc54" d="M296 218l1 3 1 4q-25 2-43 27l-39 10 7-12 28-7 12-12q15-11 33-13M216 302q6 9 5 20 0 13-9 27-10 14-22 20 4-9 6-26l3-20 2-18 3-13q7 3 12 10"/><path fill="#0d131a" d="M147 337q-2-10 2-20 4-8 12-14t17-8q8-1 14 1 7 2 10 6 4 4 6 9l1 10v4q-1 8-5 15-5 6-12 11-10 6-19 6-9 1-16-5-8-6-10-15"/><path fill="#009f50" d="M152 317q3-7 10-13 7-5 16-6h14q6 2 9 5 4 5 5 10 2 6 1 12-1 7-5 13t-11 11q-9 6-18 6t-15-5q-7-5-8-14-2-9 2-19"/><path fill="#008c46" d="M206 314q2 5 1 11-2 11-11 20l6-41 4 10"/><path fill="#009f50" d="M402 144h6q1 1-33 60l-40 70-15 7q-14 7-25 16-37 26-51 67-6 14-13-4l-4-14-1-7 79-95q73-87 82-93 8-6 15-7"/><path fill="#008c46" d="M387 157l11-7q8-4 8-2l-36 65-35 61-15 7q-14 7-25 16-37 26-51 67-6 14-13-4l-4-14-1-7 11-14q0 3 2 3t5-3q15-13 32-33l28-36 41-48 42-51"/><path fill="#0d131a" d="M404 145q-7 1-18 8-6 4-81 94l-79 93q-1 1-2-1v-2l77-91q77-93 84-97 8-5 15-7 5-2 9-1 2 0 2 2l-35 65-37 66-5 3-8 4q-26 12-48 32-28 26-33 53-1 5-3 7t1-10q7-31 31-54 20-19 52-33l6-2 4-3 70-125v-1h-2"/><path fill="#009f50" d="M210 344l8-4 15-6q14-6-8 37-17 34-39 69-6 9-8 9-1-1 2-8l16-51 14-46"/><path fill="#008c46" d="M228 342q8-4 10-7h1l1 5q0 8-4 16-7 16-25 46l-27 42 1-1v-1l19-55q12-37 14-39 1-2 10-6"/><path fill="#0d131a" d="M209 341q2-3 11-5l13-3h3l-2 2-11 5-10 4-3 9-6 18-14 45-13 34-2 4v-5l11-31 14-47 5-19 4-11"/><path fill="#009f50" d="M127 333l4-6q3-2 1 12-1 4 6 63 7 54 3 50-6-5-19-50l-9-30q-3-14-2-16l7-9 9-14"/><path fill="#008c46" d="M129 342l5-11 3 20 5 32q7 41 17 43 13 4 0 13l-10 8-6 4-14-47-10-34q-2-7-1-10l4-8 7-10"/><path fill="#0d131a" d="M126 329q2-5 3-4l-1 4q-1 6-7 15l-7 11-1 5 1 9 9 33 15 43 2 7-4-6q-9-19-20-51-11-35-8-40l10-14 8-12"/><path fill="#0d131a" d="M133 328q1-7 3-10 2-2 1 6-3 15-2 33l3 31 1 9q-1 1-3-9-7-37-3-60M126 417q6 13 3 13-8 1-11-15l-1-12q0-6 2-9l7 23"/><path fill="#ffec60" d="M128 427q-2 0-3-2l-3-6v-5l1-4 2 9 3 8"/><path fill="#0d131a" d="M126 421v1h-1l-1-4v-3l1 3 1 3M235 365q1 1-4 13l-7 15q1 6-1 18-2 13-6 17-5 7-10 7l-4-1-1-1-5 6q-5 6-8 7l4-6 11-18 21-38 10-19"/><path fill="#ffec60" d="M213 412q3 10-1 15l-3 2-4-2 8-15"/><path fill="#0d131a" d="M210 416q2 4 0 7-1 2-2 1l-1-3 3-5"/></svg>